<svg width="421" height="106" viewBox="0 0 421 106" fill="none" xmlns="http://www.w3.org/2000/svg">
<path d="M25.0742 108.5C17.6742 108.5 11.6742 106.2 7.07422 101.6C2.47422 97 0.174219 91 0.174219 83.6V25.4C0.174219 18 2.47422 12 7.07422 7.39999C11.6742 2.79999 17.6742 0.499994 25.0742 0.499994C32.4742 0.499994 38.4742 2.79999 43.0742 7.39999C47.6742 12 49.9742 18 49.9742 25.4V37.7H34.3742V25.4C34.3742 22.4 33.5242 20 31.8242 18.2C30.1242 16.4 27.9242 15.5 25.2242 15.5C22.5242 15.5 20.3242 16.4 18.6242 18.2C16.9242 20 16.0742 22.4 16.0742 25.4V83.6C16.0742 86.6 16.9242 89 18.6242 90.8C20.3242 92.6 22.5242 93.5 25.2242 93.5C27.9242 93.5 30.1242 92.6 31.8242 90.8C33.5242 89 34.3742 86.6 34.3742 83.6V68.6H49.9742V83.6C49.9742 91 47.6742 97 43.0742 101.6C38.4742 106.2 32.4742 108.5 25.0742 108.5ZM64.5125 1.99999H109.663V17H80.4125V46.25H103.663V61.25H80.4125V92H109.663V107H64.5125V1.99999ZM158.66 107L147.11 63.65H138.86V107H122.96V1.99999H147.86C155.46 1.99999 161.51 4.29999 166.01 8.89999C170.51 13.4 172.76 19.45 172.76 27.05V38.6C172.76 43.4 171.81 47.65 169.91 51.35C168.01 55.05 165.31 57.95 161.81 60.05L175.16 107H158.66ZM138.86 48.65H147.11C150.21 48.65 152.61 47.8 154.31 46.1C156.01 44.4 156.86 42 156.86 38.9V26.75C156.86 23.65 156.01 21.25 154.31 19.55C152.61 17.85 150.21 17 147.11 17H138.86V48.65ZM182.752 1.99999H233.452V17H216.052V107H200.152V17H182.752V1.99999ZM298.514 1.99999L277.214 63.05V107H261.314V63.05L240.014 1.99999H256.964L269.264 42.05L281.864 1.99999H298.514ZM331.08 108.5C323.68 108.5 317.68 106.2 313.08 101.6C308.48 97 306.18 91 306.18 83.6V25.4C306.18 18 308.48 12 313.08 7.39999C317.68 2.79999 323.68 0.499994 331.08 0.499994C338.48 0.499994 344.48 2.79999 349.08 7.39999C353.68 12 355.98 18 355.98 25.4V37.7H340.38V25.4C340.38 22.4 339.53 20 337.83 18.2C336.13 16.4 333.93 15.5 331.23 15.5C328.53 15.5 326.33 16.4 324.63 18.2C322.93 20 322.08 22.4 322.08 25.4V83.6C322.08 86.6 322.93 89 324.63 90.8C326.33 92.6 328.53 93.5 331.23 93.5C333.93 93.5 336.13 92.6 337.83 90.8C339.53 89 340.38 86.6 340.38 83.6V68.6H355.98V83.6C355.98 91 353.68 97 349.08 101.6C344.48 106.2 338.48 108.5 331.08 108.5ZM395.254 108.5C387.654 108.5 381.504 106.2 376.804 101.6C372.104 96.9 369.754 90.75 369.754 83.15V25.85C369.754 18.25 372.104 12.15 376.804 7.54999C381.504 2.84999 387.654 0.499994 395.254 0.499994C402.854 0.499994 409.004 2.84999 413.704 7.54999C418.404 12.15 420.754 18.25 420.754 25.85V83.15C420.754 90.75 418.404 96.9 413.704 101.6C409.004 106.2 402.854 108.5 395.254 108.5ZM395.254 93.5C398.254 93.5 400.604 92.6 402.304 90.8C404.004 89 404.854 86.45 404.854 83.15V25.85C404.854 22.55 404.004 20 402.304 18.2C400.604 16.4 398.254 15.5 395.254 15.5C392.254 15.5 389.904 16.4 388.204 18.2C386.504 20 385.654 22.55 385.654 25.85V83.15C385.654 86.45 386.504 89 388.204 90.8C389.904 92.6 392.254 93.5 395.254 93.5Z" fill="white"/>
</svg>
