<svg width="190" height="29" viewBox="0 0 190 29" fill="none" xmlns="http://www.w3.org/2000/svg">
<path d="M12.4657 19.7741C12.4657 18.9081 12.1593 18.2441 11.5487 17.7798C10.9381 17.3155 9.83653 16.8268 8.24857 16.3114C6.65945 15.7995 5.40115 15.2911 4.47484 14.7885C1.94897 13.428 0.686027 11.5893 0.686027 9.27703C0.686027 8.07562 1.02498 7.00305 1.70288 6.06049C2.37962 5.11793 3.35236 4.38315 4.6211 3.85267C5.88984 3.32335 7.31181 3.05753 8.89165 3.05753C10.4808 3.05753 11.8958 3.3454 13.139 3.92115C14.381 4.4969 15.3456 5.30946 16.034 6.35881C16.7212 7.40816 17.0648 8.59913 17.0648 9.93404H12.482C12.482 8.91603 12.1616 8.12321 11.5197 7.55907C10.8778 6.99376 9.97698 6.71169 8.8162 6.71169C7.69487 6.71169 6.82428 6.94849 6.20326 7.42209C5.58224 7.8957 5.27114 8.51904 5.27114 9.29329C5.27114 10.0165 5.63447 10.6224 6.36229 11.1111C7.09126 11.5998 8.16267 12.0583 9.57883 12.4866C12.186 13.2713 14.0862 14.2429 15.2783 15.4048C16.4693 16.5668 17.0648 18.012 17.0648 19.7415C17.0648 21.665 16.3369 23.1786 14.8802 24.2686C13.4234 25.3609 11.464 25.9123 8.99844 25.9123C7.28744 25.9123 5.72966 25.5977 4.32394 24.9686C2.91822 24.3429 1.84566 23.4886 1.10739 22.3951C0.369131 21.3063 0 20.0422 0 18.6051H4.59905C4.59905 21.0567 6.06629 22.2872 8.99844 22.2872C10.0884 22.2872 10.9393 22.0666 11.5499 21.622C12.1604 21.1856 12.4657 20.568 12.4657 19.7741Z" fill="white"/>
<path d="M27.8357 13.3874L32.465 3.36511H37.4749L30.1724 17.543V25.6093H25.5118V17.543L18.2093 3.36511H23.2355L27.8357 13.3874Z" fill="white"/>
<path d="M47.7421 17.4664H44.0903V25.6105H39.5075V3.36511H47.7723C50.4015 3.36511 52.4271 3.95131 53.8537 5.12255C55.2791 6.29378 55.9918 7.94907 55.9918 10.0884C55.9918 11.6056 55.6645 12.8708 55.0063 13.8853C54.3505 14.8987 53.3534 15.7055 52.0196 16.3079L56.8323 25.3992V25.6151H51.914L47.7421 17.4664ZM44.0914 13.7542H47.7897C48.94 13.7542 49.8315 13.4617 50.463 12.8755C51.0945 12.2893 51.4102 11.4825 51.4102 10.4541C51.4102 9.4047 51.1119 8.57938 50.5164 7.97925C49.9198 7.37796 49.0051 7.07732 47.7735 7.07732H44.0914V13.7542Z" fill="white"/>
<path d="M64.3495 25.6093H59.7667V3.36511H64.3495V25.6093Z" fill="white"/>
<path d="M119.134 0H73.1693V29H119.134V0Z" fill="#70C7D8"/>
<path d="M86.3546 3.64374C89.859 3.64374 92.7378 4.66059 94.9897 6.69429C97.2416 8.72799 98.3687 11.3676 98.3687 14.6109C98.3687 17.8541 97.2416 20.4984 94.9897 22.5425C92.7378 24.5879 89.8578 25.6105 86.3546 25.6105H78.626V3.64374H86.3546ZM83.9761 21.5396H86.3546C88.3987 21.5396 90.0053 20.914 91.173 19.6638C92.3408 18.4125 92.9246 16.734 92.9246 14.6248C92.9246 12.5203 92.3408 10.8406 91.173 9.5893C90.0041 8.33681 88.3976 7.71114 86.3546 7.71114H83.9761V21.5396Z" fill="white"/>
<path d="M105.443 7.55556C104.775 7.55556 104.227 7.73316 103.8 8.08837C103.373 8.44357 103.157 8.95315 103.157 9.62061C103.157 10.2881 103.357 10.8255 103.754 11.2329C104.15 11.6392 104.666 11.9515 105.302 12.172C105.938 12.3902 106.648 12.5992 107.43 12.7977C108.212 12.9962 108.99 13.2353 109.762 13.5174C110.533 13.7983 111.237 14.1477 111.873 14.5644C112.51 14.9823 113.024 15.5708 113.422 16.3323C113.818 17.0938 114.016 18.005 114.016 19.0683C114.016 20.9267 113.261 22.517 111.748 23.8368C110.236 25.1647 108.244 25.8241 105.772 25.8241C103.301 25.8241 101.308 25.2297 99.799 24.0446C98.2876 22.8559 97.5308 21.1658 97.5308 18.9754H103.226C103.371 20.7282 104.266 21.6046 105.912 21.6046C106.685 21.6046 107.291 21.3991 107.726 20.994C108.165 20.5877 108.382 20.0712 108.382 19.4455C108.382 18.8199 108.184 18.3091 107.788 17.9133C107.388 17.5186 106.874 17.2075 106.239 16.9742C105.599 16.7455 104.892 16.5308 104.11 16.3323C103.325 16.1338 102.549 15.8877 101.777 15.5952C101.005 15.305 100.302 14.9533 99.6689 14.5482C99.0317 14.1419 98.5151 13.558 98.1205 12.7965C97.7235 12.035 97.5215 11.132 97.5215 10.0896C97.5215 8.04542 98.283 6.4087 99.8094 5.17827C101.332 3.94783 103.273 3.33145 105.641 3.33145C108.008 3.33145 109.922 3.8689 111.38 4.94379C112.843 6.01868 113.602 7.71227 113.667 10.028H107.853C107.769 9.23522 107.512 8.62581 107.086 8.19748C106.658 7.76915 106.109 7.55556 105.443 7.55556Z" fill="white"/>
<path d="M131.551 7.08082C131.551 7.75872 131.437 8.3809 131.213 8.94737C130.988 9.51383 130.669 10.0025 130.261 10.4111C129.851 10.8197 129.36 11.1378 128.786 11.363C128.21 11.5893 127.573 11.7019 126.875 11.7019H123.345V2.4574H126.875C127.575 2.4574 128.209 2.57115 128.786 2.79867C129.36 3.02734 129.854 3.34424 130.261 3.75168C130.67 4.15911 130.988 4.64549 131.213 5.21195C131.441 5.7819 131.551 6.40292 131.551 7.08082ZM129.795 7.08082C129.795 6.57356 129.726 6.11853 129.589 5.71573C129.455 5.31294 129.26 4.97167 129.008 4.69308C128.756 4.41449 128.452 4.19974 128.091 4.05116C127.729 3.90142 127.326 3.82713 126.873 3.82713H125.076V10.3345H126.873C127.326 10.3345 127.729 10.2602 128.091 10.1105C128.453 9.9619 128.756 9.74716 129.008 9.46857C129.26 9.18882 129.455 8.8487 129.589 8.44591C129.726 8.04428 129.795 7.58809 129.795 7.08082Z" fill="white"/>
<path d="M135.522 5.04251C135.933 5.04251 136.316 5.10868 136.661 5.23985C137.01 5.37218 137.31 5.56487 137.557 5.81908C137.809 6.07329 138.005 6.38438 138.146 6.75235C138.286 7.12148 138.359 7.54169 138.359 8.01529C138.359 8.13485 138.354 8.23352 138.341 8.31245C138.329 8.39139 138.314 8.45291 138.283 8.49818C138.251 8.54345 138.213 8.57479 138.168 8.59453C138.12 8.6131 138.061 8.62238 137.991 8.62238H133.939C133.985 9.2968 134.166 9.79014 134.484 10.1059C134.799 10.4216 135.219 10.5795 135.735 10.5795C135.995 10.5795 136.212 10.5493 136.396 10.4901C136.581 10.4309 136.744 10.3647 136.883 10.2916C137.021 10.2185 137.146 10.1535 137.246 10.0943C137.35 10.0339 137.455 10.0049 137.552 10.0049C137.617 10.0049 137.672 10.0177 137.72 10.0432C137.766 10.0687 137.807 10.1047 137.84 10.1523L138.3 10.7281C138.127 10.9324 137.932 11.1042 137.711 11.2423C137.493 11.3816 137.267 11.4919 137.03 11.5754C136.794 11.6578 136.553 11.717 136.308 11.7507C136.063 11.7844 135.825 11.8018 135.596 11.8018C135.139 11.8018 134.715 11.7263 134.323 11.5754C133.931 11.4245 133.589 11.2005 133.3 10.9033C133.01 10.6073 132.783 10.2405 132.614 9.80407C132.448 9.36761 132.365 8.86151 132.365 8.28576C132.365 7.83769 132.438 7.41632 132.583 7.02282C132.728 6.62815 132.938 6.28572 133.206 5.9932C133.475 5.70068 133.809 5.46968 134.198 5.29905C134.59 5.12841 135.031 5.04251 135.522 5.04251ZM135.556 6.17312C135.096 6.17312 134.735 6.30313 134.474 6.56314C134.213 6.82316 134.048 7.19229 133.975 7.66938H136.942C136.942 7.46508 136.914 7.27239 136.859 7.09014C136.803 6.9079 136.719 6.75003 136.603 6.61422C136.487 6.47725 136.342 6.37045 136.168 6.29152C135.993 6.21259 135.789 6.17312 135.556 6.17312Z" fill="white"/>
<path d="M143.539 6.42266C143.496 6.49115 143.453 6.53874 143.409 6.5666C143.361 6.59445 143.298 6.60838 143.23 6.60838C143.157 6.60838 143.071 6.58749 142.984 6.54454C142.896 6.50159 142.795 6.454 142.677 6.4006C142.561 6.34721 142.43 6.29961 142.283 6.25666C142.135 6.21372 141.966 6.19282 141.765 6.19282C141.45 6.19282 141.209 6.25899 141.027 6.39132C140.851 6.52365 140.761 6.6966 140.761 6.90903C140.761 7.05065 140.806 7.16788 140.898 7.26423C140.99 7.36058 141.115 7.44415 141.261 7.51728C141.413 7.59041 141.582 7.65426 141.773 7.7123C141.966 7.77033 142.162 7.83302 142.362 7.9015C142.565 7.96999 142.76 8.0466 142.952 8.13482C143.143 8.22304 143.316 8.33332 143.464 8.46797C143.616 8.60262 143.736 8.76281 143.828 8.95086C143.918 9.1389 143.966 9.3641 143.966 9.6276C143.966 9.94333 143.905 10.2335 143.795 10.5005C143.678 10.7663 143.512 10.9973 143.288 11.1912C143.064 11.385 142.79 11.5359 142.465 11.6451C142.141 11.7542 141.764 11.8076 141.342 11.8076C141.118 11.8076 140.896 11.7878 140.683 11.7472C140.465 11.7066 140.263 11.6509 140.062 11.5777C139.865 11.5058 139.682 11.4199 139.511 11.3223C139.341 11.2248 139.196 11.1181 139.066 11.0031L139.429 10.4018C139.477 10.3287 139.532 10.2742 139.599 10.2359C139.666 10.1975 139.744 10.1778 139.842 10.1778C139.94 10.1778 140.032 10.2057 140.12 10.2614C140.205 10.3171 140.305 10.3763 140.423 10.4402C140.541 10.504 140.675 10.5632 140.834 10.6189C140.988 10.6746 141.187 10.7025 141.424 10.7025C141.612 10.7025 141.774 10.6804 141.907 10.6352C142.042 10.5899 142.153 10.5319 142.24 10.4599C142.326 10.3868 142.392 10.3032 142.432 10.2068C142.471 10.1105 142.493 10.0118 142.493 9.90967C142.493 9.75644 142.447 9.63108 142.356 9.53241C142.264 9.43374 142.142 9.34901 141.991 9.27704C141.842 9.20391 141.672 9.1389 141.477 9.08203C141.282 9.02399 141.082 8.9613 140.88 8.89282C140.676 8.82433 140.479 8.7454 140.285 8.65253C140.09 8.56083 139.919 8.44475 139.767 8.3043C139.615 8.16384 139.498 7.99088 139.404 7.78659C139.312 7.58229 139.267 7.33504 139.267 7.04484C139.267 6.7767 139.32 6.52016 139.429 6.27756C139.537 6.03495 139.694 5.82253 139.897 5.64145C140.105 5.46036 140.358 5.31527 140.67 5.20615C140.983 5.0982 141.335 5.04364 141.742 5.04364C142.197 5.04364 142.604 5.11793 142.976 5.26767C143.344 5.41625 143.656 5.61243 143.903 5.85503L143.539 6.42266Z" fill="white"/>
<path d="M150.373 11.7031H149.664C149.514 11.7031 149.398 11.681 149.312 11.6358C149.226 11.5905 149.163 11.4999 149.12 11.3641L148.979 10.8975C148.813 11.0461 148.651 11.1772 148.491 11.2898C148.33 11.4036 148.165 11.4976 147.995 11.5742C147.824 11.6508 147.643 11.7089 147.45 11.7472C147.258 11.7855 147.042 11.8041 146.807 11.8041C146.535 11.8041 146.275 11.7669 146.045 11.6926C145.809 11.6183 145.607 11.5046 145.44 11.3548C145.271 11.2051 145.14 11.0194 145.045 10.7977C144.952 10.5748 144.906 10.3159 144.906 10.0211C144.906 9.77385 144.971 9.52892 145.101 9.28631C145.229 9.04487 145.447 8.82664 145.75 8.63279C146.053 8.43894 146.455 8.27643 146.958 8.14874C147.463 8.02105 148.087 7.95605 148.832 7.95605V7.57067C148.832 7.12841 148.739 6.80106 148.553 6.58864C148.37 6.37622 148.098 6.26942 147.746 6.26942C147.489 6.26942 147.28 6.2996 147.107 6.3588C146.937 6.41917 146.788 6.48533 146.661 6.56078C146.536 6.63507 146.419 6.7024 146.313 6.7616C146.206 6.8208 146.089 6.85098 145.959 6.85098C145.852 6.85098 145.762 6.82312 145.686 6.7674C145.611 6.71285 145.548 6.64436 145.5 6.5631L145.214 6.05816C145.966 5.36749 146.878 5.02274 147.944 5.02274C148.327 5.02274 148.669 5.08542 148.973 5.21194C149.274 5.33847 149.529 5.51259 149.735 5.73662C149.946 5.95949 150.101 6.22763 150.211 6.53873C150.32 6.84982 150.377 7.19109 150.377 7.56138L150.373 11.7031ZM147.307 10.7187C147.471 10.7187 147.62 10.7036 147.753 10.6746C147.889 10.6456 148.019 10.6015 148.141 10.5423C148.262 10.4831 148.379 10.4111 148.495 10.3252C148.609 10.2393 148.719 10.1372 148.838 10.0199V8.92183C148.378 8.92183 147.991 8.95085 147.684 9.00889C147.37 9.06693 147.128 9.14122 146.935 9.2306C146.751 9.32114 146.618 9.42561 146.536 9.54517C146.46 9.66589 146.416 9.7959 146.416 9.93752C146.416 10.2173 146.496 10.4169 146.662 10.5365C146.828 10.656 147.041 10.7187 147.307 10.7187Z" fill="white"/>
<path d="M151.927 11.7031V5.14346H152.854C153.018 5.14346 153.129 5.17364 153.193 5.23284C153.258 5.2932 153.301 5.39535 153.321 5.54045L153.416 6.33327C153.649 5.92815 153.925 5.60893 154.241 5.37445C154.556 5.13997 154.91 5.02274 155.302 5.02274C155.626 5.02274 155.895 5.09703 156.107 5.24677L155.899 6.42961C155.886 6.50622 155.862 6.56078 155.819 6.59328C155.776 6.62579 155.719 6.64204 155.648 6.64204C155.583 6.64204 155.495 6.62695 155.386 6.59677C155.271 6.56659 155.123 6.5515 154.943 6.5515C154.615 6.5515 154.334 6.64204 154.097 6.82312C153.863 7.0042 153.664 7.27002 153.499 7.62174V11.7077H151.924L151.927 11.7031Z" fill="white"/>
<path d="M157.149 11.7031V5.14346H158.076C158.239 5.14346 158.351 5.17364 158.415 5.23284C158.481 5.2932 158.522 5.39535 158.542 5.54045L158.637 6.33327C158.873 5.92815 159.145 5.60893 159.463 5.37445C159.778 5.13997 160.131 5.02274 160.523 5.02274C160.847 5.02274 161.118 5.09703 161.33 5.24677L161.121 6.42961C161.108 6.50622 161.085 6.56078 161.042 6.59328C160.999 6.62579 160.942 6.64204 160.87 6.64204C160.804 6.64204 160.718 6.62695 160.607 6.59677C160.493 6.56659 160.346 6.5515 160.165 6.5515C159.838 6.5515 159.557 6.64204 159.318 6.82312C159.084 7.0042 158.885 7.27002 158.719 7.62174V11.7077H157.145L157.149 11.7031Z" fill="white"/>
<path d="M165.173 5.04251C165.663 5.04251 166.108 5.12144 166.506 5.27931C166.903 5.43718 167.243 5.66121 167.524 5.95141C167.803 6.24161 168.024 6.59449 168.178 7.01237C168.332 7.43025 168.406 7.89689 168.406 8.41228C168.406 8.93232 168.332 9.40127 168.178 9.81916C168.024 10.237 167.808 10.5922 167.524 10.8859C167.243 11.1796 166.903 11.406 166.506 11.5638C166.103 11.7217 165.66 11.8006 165.173 11.8006C164.681 11.8006 164.237 11.7217 163.837 11.5638C163.436 11.406 163.094 11.1796 162.811 10.8859C162.528 10.5922 162.307 10.2359 162.154 9.81916C161.999 9.40243 161.921 8.93232 161.921 8.41228C161.921 7.89689 161.998 7.43025 162.154 7.01237C162.309 6.59449 162.528 6.24045 162.811 5.95141C163.094 5.66121 163.436 5.43718 163.837 5.27931C164.238 5.12028 164.681 5.04251 165.173 5.04251ZM165.173 10.5841C165.719 10.5841 166.121 10.4007 166.384 10.0339C166.648 9.6671 166.778 9.13081 166.778 8.42273C166.778 7.71465 166.648 7.17604 166.384 6.80459C166.121 6.4343 165.719 6.24857 165.173 6.24857C164.617 6.24857 164.21 6.43546 163.944 6.80807C163.678 7.18068 163.545 7.71929 163.545 8.42273C163.545 9.12501 163.677 9.66129 163.944 10.0304C164.21 10.4007 164.621 10.5841 165.173 10.5841Z" fill="white"/>
<path d="M171.323 2.20319V11.7031H169.745V2.20319H171.323Z" fill="white"/>
<path d="M174.788 2.20319V11.7031H173.21V2.20319H174.788Z" fill="white"/>
<path d="M179.373 5.04251C179.863 5.04251 180.308 5.12144 180.706 5.27931C181.104 5.43718 181.444 5.66121 181.725 5.95141C182.006 6.24161 182.225 6.59449 182.377 7.01237C182.532 7.43025 182.608 7.89689 182.608 8.41228C182.608 8.93232 182.532 9.40127 182.377 9.81916C182.225 10.237 182.011 10.5922 181.725 10.8859C181.443 11.1796 181.104 11.406 180.706 11.5638C180.307 11.7217 179.862 11.8006 179.373 11.8006C178.886 11.8006 178.437 11.7217 178.041 11.5638C177.637 11.406 177.294 11.1796 177.011 10.8859C176.728 10.5922 176.507 10.2359 176.356 9.81916C176.202 9.40243 176.123 8.93232 176.123 8.41228C176.123 7.89689 176.201 7.43025 176.356 7.01237C176.512 6.59449 176.73 6.24045 177.011 5.95141C177.294 5.66121 177.637 5.43718 178.041 5.27931C178.437 5.12028 178.883 5.04251 179.373 5.04251ZM179.373 10.5841C179.92 10.5841 180.322 10.4007 180.584 10.0339C180.85 9.6671 180.979 9.13081 180.979 8.42273C180.979 7.71465 180.851 7.17604 180.584 6.80459C180.322 6.4343 179.92 6.24857 179.373 6.24857C178.818 6.24857 178.41 6.43546 178.145 6.80807C177.881 7.18068 177.748 7.71929 177.748 8.42273C177.748 9.12501 177.881 9.66129 178.145 10.0304C178.41 10.4007 178.818 10.5841 179.373 10.5841Z" fill="white"/>
<path d="M127.869 27.0476C127.665 27.0476 127.529 26.9524 127.463 26.7597L127.339 26.1271C127.203 26.2814 127.06 26.4196 126.91 26.5415C126.761 26.6657 126.599 26.7725 126.429 26.8607C126.256 26.9512 126.069 27.0197 125.873 27.0696C125.674 27.1184 125.46 27.1428 125.229 27.1428C124.87 27.1428 124.543 27.0696 124.244 26.9234C123.944 26.7771 123.688 26.5589 123.473 26.2722C123.256 25.9866 123.092 25.6372 122.974 25.2205C122.854 24.8049 122.8 24.3255 122.8 23.7916C122.8 23.3052 122.866 22.849 122.998 22.4358C123.128 22.0225 123.319 21.6557 123.566 21.3469C123.813 21.0382 124.11 20.799 124.456 20.6284C124.801 20.4578 125.189 20.3672 125.619 20.3672C125.985 20.3672 126.3 20.4264 126.56 20.5437C126.823 20.6621 127.052 20.8153 127.261 21.0126V17.5488H128.836V27.0487H127.869V27.0476ZM125.767 25.8914C126.094 25.8914 126.373 25.8218 126.605 25.6848C126.835 25.549 127.052 25.3563 127.259 25.1044V22.1641C127.08 21.9459 126.885 21.7962 126.673 21.7045C126.461 21.6151 126.236 21.571 125.99 21.571C125.754 21.571 125.536 21.6151 125.341 21.7045C125.148 21.7938 124.981 21.9273 124.848 22.1142C124.715 22.2918 124.61 22.5251 124.535 22.8037C124.462 23.0823 124.426 23.4097 124.426 23.7939C124.426 24.1781 124.454 24.5008 124.519 24.7689C124.581 25.0348 124.669 25.2518 124.785 25.4225C124.9 25.5919 125.041 25.7127 125.205 25.7858C125.377 25.852 125.561 25.8914 125.767 25.8914Z" fill="white"/>
<path d="M133.253 20.3858C133.664 20.3858 134.048 20.452 134.392 20.5831C134.741 20.7143 135.04 20.907 135.288 21.1612C135.54 21.4154 135.736 21.7254 135.876 22.0956C136.017 22.4659 136.09 22.885 136.09 23.3586C136.09 23.4793 136.085 23.5768 136.071 23.6557C136.06 23.7347 136.045 23.7962 136.013 23.8415C135.988 23.8856 135.944 23.9181 135.898 23.9367C135.851 23.9576 135.792 23.9657 135.722 23.9657H131.67C131.716 24.6389 131.897 25.1334 132.215 25.448C132.53 25.7626 132.95 25.9181 133.469 25.9181C133.725 25.9181 133.942 25.8903 134.127 25.8276C134.313 25.7684 134.475 25.7069 134.613 25.6302C134.751 25.5536 134.877 25.4956 134.977 25.4318C135.081 25.3714 135.186 25.3424 135.283 25.3424C135.348 25.3424 135.404 25.3575 135.451 25.3807C135.499 25.4039 135.537 25.4457 135.572 25.491L136.032 26.0644C135.858 26.2733 135.663 26.4405 135.442 26.5786C135.224 26.7144 134.998 26.8282 134.761 26.9071C134.525 26.9907 134.284 27.0499 134.039 27.0836C133.794 27.1172 133.556 27.1335 133.327 27.1335C132.87 27.1335 132.446 27.0603 132.054 26.9071C131.661 26.7574 131.32 26.5368 131.031 26.2397C130.741 25.9413 130.513 25.578 130.346 25.1404C130.179 24.7039 130.096 24.1967 130.096 23.6198C130.096 23.1705 130.169 22.7492 130.314 22.3568C130.459 21.9622 130.669 21.6174 130.937 21.326C131.205 21.0347 131.54 20.8037 131.928 20.6319C132.32 20.4624 132.762 20.3858 133.253 20.3858ZM133.284 21.5176C132.825 21.5176 132.464 21.6464 132.204 21.9076C131.942 22.1688 131.779 22.5356 131.704 23.0138H134.671C134.671 22.8084 134.645 22.6157 134.588 22.4346C134.533 22.2547 134.447 22.0945 134.332 21.9587C134.216 21.8217 134.071 21.7149 133.897 21.636C133.723 21.557 133.52 21.5176 133.284 21.5176Z" fill="white"/>
<path d="M144.89 19.4838C144.842 19.5779 144.788 19.6452 144.725 19.6823C144.663 19.7206 144.59 19.7404 144.507 19.7404C144.424 19.7404 144.328 19.7067 144.219 19.6406C144.112 19.5744 143.989 19.5024 143.844 19.4223C143.699 19.3411 143.529 19.2656 143.336 19.2029C143.14 19.1356 142.914 19.1031 142.647 19.1031C142.408 19.1031 142.2 19.131 142.024 19.189C141.849 19.2459 141.699 19.326 141.576 19.4293C141.455 19.5314 141.362 19.651 141.306 19.7938C141.245 19.9366 141.216 20.0933 141.216 20.2616C141.216 20.4798 141.277 20.662 141.397 20.8071C141.517 20.9522 141.679 21.073 141.88 21.1751C142.082 21.2784 142.308 21.3701 142.565 21.4502C142.821 21.5292 143.08 21.6185 143.349 21.7102C143.615 21.8008 143.875 21.9076 144.132 22.0283C144.391 22.149 144.618 22.3022 144.819 22.488C145.019 22.6737 145.182 22.9 145.301 23.1682C145.421 23.4363 145.481 23.7648 145.481 24.1479C145.481 24.5646 145.408 24.9546 145.265 25.3238C145.122 25.6871 144.913 26.0063 144.638 26.2745C144.365 26.5426 144.03 26.7574 143.633 26.9141C143.235 27.0719 142.785 27.1474 142.27 27.1474C141.975 27.1474 141.686 27.1207 141.402 27.0626C141.116 27.0046 140.842 26.9233 140.581 26.8142C140.316 26.7074 140.073 26.5821 139.844 26.4323C139.617 26.2814 139.412 26.1178 139.234 25.932L139.736 25.1067C139.782 25.0452 139.839 24.9953 139.905 24.9546C139.974 24.9163 140.044 24.8943 140.125 24.8943C140.232 24.8943 140.344 24.9384 140.47 25.022C140.591 25.1102 140.736 25.2077 140.908 25.3145C141.078 25.4236 141.272 25.52 141.504 25.6047C141.731 25.6929 142.009 25.7359 142.327 25.7359C142.817 25.7359 143.195 25.6175 143.463 25.3853C143.73 25.1555 143.866 24.8223 143.866 24.387C143.866 24.1444 143.806 23.9448 143.686 23.7904C143.565 23.6372 143.403 23.5095 143.203 23.4038C143.004 23.2994 142.775 23.2111 142.518 23.138C142.262 23.0649 142.004 22.9859 141.737 22.9035C141.471 22.8188 141.215 22.7166 140.957 22.5936C140.702 22.4729 140.473 22.322 140.273 22.1293C140.073 21.9389 139.91 21.6986 139.79 21.4108C139.671 21.1229 139.608 20.7665 139.608 20.3463C139.608 20.0097 139.678 19.6812 139.811 19.3585C139.944 19.0404 140.14 18.7537 140.401 18.5111C140.66 18.2639 140.974 18.0665 141.347 17.9145C141.722 17.7647 142.148 17.6927 142.631 17.6927C143.178 17.6927 143.678 17.7786 144.141 17.9516C144.601 18.1211 144.991 18.3625 145.317 18.6655L144.89 19.4838Z" fill="white"/>
<path d="M148.621 18.5773C148.621 18.7131 148.594 18.8431 148.538 18.9603C148.482 19.0811 148.409 19.1832 148.318 19.2737C148.227 19.3643 148.119 19.4386 147.996 19.492C147.875 19.5454 147.74 19.5721 147.599 19.5721C147.463 19.5721 147.333 19.5454 147.214 19.492C147.094 19.4386 146.99 19.3701 146.899 19.2737C146.81 19.1867 146.734 19.0811 146.682 18.9603C146.627 18.8396 146.604 18.7131 146.604 18.5773C146.604 18.4368 146.629 18.3056 146.682 18.1803C146.734 18.0561 146.805 17.9493 146.899 17.8611C146.988 17.7728 147.094 17.6997 147.214 17.6463C147.334 17.5929 147.463 17.5662 147.599 17.5662C147.74 17.5662 147.872 17.5929 147.996 17.6463C148.12 17.6997 148.227 17.7694 148.318 17.8611C148.409 17.9493 148.487 18.0561 148.538 18.1803C148.594 18.3022 148.621 18.4368 148.621 18.5773ZM148.385 20.4879V27.0464H146.806V20.4879H148.385Z" fill="white"/>
<path d="M154.062 21.7671C154.019 21.8356 153.976 21.8832 153.929 21.9099C153.881 21.9378 153.822 21.9517 153.75 21.9517C153.677 21.9517 153.591 21.9296 153.505 21.8879C153.417 21.8449 153.315 21.7973 153.2 21.7439C153.084 21.6894 152.954 21.6418 152.806 21.6C152.659 21.5582 152.487 21.535 152.285 21.535C151.974 21.535 151.729 21.6023 151.55 21.7346C151.372 21.8623 151.283 22.0388 151.283 22.2477C151.283 22.3881 151.329 22.51 151.419 22.6052C151.512 22.7027 151.636 22.7863 151.783 22.8594C151.935 22.9326 152.105 22.9952 152.296 23.0544C152.488 23.1125 152.686 23.1752 152.885 23.2425C153.086 23.311 153.282 23.3888 153.474 23.4758C153.665 23.564 153.837 23.6731 153.987 23.809C154.139 23.939 154.257 24.1038 154.35 24.2918C154.441 24.4752 154.487 24.7028 154.487 24.9674C154.487 25.282 154.427 25.5722 154.318 25.8403C154.198 26.1062 154.034 26.3383 153.809 26.5322C153.591 26.726 153.311 26.8769 152.987 26.986C152.662 27.0952 152.286 27.1497 151.863 27.1497C151.64 27.1497 151.416 27.1288 151.204 27.0882C150.986 27.0499 150.787 26.9918 150.585 26.9187C150.386 26.8456 150.206 26.7608 150.034 26.6633C149.865 26.5635 149.72 26.4544 149.586 26.3441L149.95 25.7428C149.997 25.6697 150.053 25.614 150.117 25.5734C150.184 25.535 150.262 25.5153 150.359 25.5153C150.459 25.5153 150.55 25.5397 150.638 25.5954C150.725 25.65 150.826 25.7138 150.942 25.7742C151.061 25.838 151.195 25.8961 151.352 25.9518C151.51 26.0075 151.707 26.0342 151.945 26.0342C152.131 26.0342 152.294 26.0098 152.428 25.9645C152.56 25.9204 152.673 25.8601 152.758 25.7916C152.845 25.7185 152.913 25.6337 152.95 25.5385C152.99 25.441 153.013 25.3435 153.013 25.2379C153.013 25.0847 152.968 24.9616 152.877 24.8641C152.784 24.7666 152.66 24.6807 152.513 24.6053C152.365 24.5298 152.191 24.4694 151.996 24.4102C151.801 24.3522 151.604 24.2895 151.401 24.221C151.197 24.1526 151 24.0736 150.805 23.9819C150.61 23.8925 150.439 23.7741 150.289 23.6337C150.137 23.4932 150.017 23.3191 149.924 23.116C149.834 22.9117 149.788 22.6633 149.788 22.3731C149.788 22.1072 149.844 21.8495 149.951 21.6069C150.059 21.3643 150.217 21.1473 150.42 20.9697C150.626 20.7897 150.881 20.6446 151.192 20.5355C151.504 20.4264 151.856 20.3695 152.265 20.3695C152.717 20.3695 153.126 20.4427 153.499 20.5924C153.867 20.741 154.18 20.9383 154.427 21.1809L154.062 21.7671Z" fill="white"/>
<path d="M157.909 27.1485C157.344 27.1485 156.907 26.9837 156.599 26.6656C156.289 26.3441 156.139 25.8995 156.139 25.3331V21.6708H155.475C155.391 21.6708 155.315 21.6429 155.257 21.5884C155.193 21.5338 155.164 21.4502 155.164 21.3388V20.7131L156.218 20.5436L156.549 18.7537C156.568 18.6678 156.606 18.6005 156.669 18.5552C156.733 18.5088 156.809 18.4821 156.903 18.4821H157.719V20.5448H159.446V21.6708H157.719V25.2263C157.719 25.4317 157.772 25.5896 157.874 25.7045C157.976 25.8218 158.113 25.8752 158.285 25.8752C158.383 25.8752 158.463 25.8635 158.53 25.8427C158.6 25.8183 158.652 25.7927 158.702 25.7695C158.751 25.7451 158.794 25.7196 158.831 25.6964C158.869 25.672 158.907 25.6639 158.948 25.6639C158.994 25.6639 159.033 25.6755 159.065 25.6964C159.093 25.7208 159.129 25.7556 159.16 25.8032L159.634 26.5693C159.403 26.762 159.137 26.9071 158.839 27.0046C158.539 27.0998 158.232 27.1485 157.909 27.1485Z" fill="white"/>
<path d="M163.417 20.3858C163.828 20.3858 164.213 20.452 164.556 20.5831C164.904 20.7143 165.204 20.907 165.454 21.1612C165.705 21.4154 165.902 21.7254 166.043 22.0956C166.182 22.4648 166.254 22.885 166.254 23.3586C166.254 23.4793 166.248 23.5768 166.238 23.6557C166.225 23.7347 166.208 23.7962 166.18 23.8415C166.152 23.8856 166.11 23.9181 166.066 23.9367C166.021 23.9576 165.957 23.9657 165.887 23.9657H161.836C161.883 24.6389 162.062 25.1334 162.379 25.448C162.695 25.7626 163.113 25.9181 163.632 25.9181C163.888 25.9181 164.109 25.8903 164.293 25.8276C164.479 25.7684 164.642 25.7069 164.779 25.6302C164.917 25.5571 165.04 25.4956 165.142 25.4318C165.247 25.3714 165.351 25.3424 165.448 25.3424C165.515 25.3424 165.569 25.3575 165.617 25.3807C165.663 25.4051 165.704 25.4457 165.738 25.491L166.197 26.0644C166.025 26.2733 165.828 26.4405 165.609 26.5786C165.39 26.7144 165.163 26.8282 164.925 26.9071C164.692 26.9907 164.45 27.0499 164.205 27.0836C163.959 27.1172 163.722 27.1335 163.493 27.1335C163.034 27.1335 162.613 27.0603 162.218 26.9071C161.826 26.7574 161.486 26.5368 161.195 26.2397C160.905 25.9413 160.68 25.578 160.511 25.1404C160.343 24.7039 160.26 24.1967 160.26 23.6198C160.26 23.1705 160.333 22.7492 160.478 22.3568C160.623 21.9622 160.831 21.6174 161.099 21.326C161.369 21.0347 161.703 20.8037 162.09 20.6319C162.478 20.4624 162.925 20.3858 163.417 20.3858ZM163.447 21.5176C162.988 21.5176 162.627 21.6464 162.367 21.9076C162.105 22.1688 161.941 22.5356 161.867 23.0138H164.834C164.834 22.8084 164.807 22.6157 164.751 22.4346C164.695 22.2547 164.61 22.0945 164.495 21.9587C164.379 21.8217 164.234 21.7149 164.06 21.636C163.886 21.557 163.682 21.5176 163.447 21.5176Z" fill="white"/>
<path d="M167.538 27.0476V20.4903H168.504C168.709 20.4903 168.842 20.5855 168.907 20.7782L169.01 21.2634C169.126 21.1368 169.244 21.0184 169.371 20.9093C169.497 20.8025 169.636 20.712 169.778 20.6377C169.92 20.5611 170.074 20.4996 170.238 20.4543C170.404 20.4102 170.583 20.3858 170.778 20.3858C171.19 20.3858 171.53 20.4996 171.799 20.7213C172.065 20.943 172.262 21.2425 172.398 21.6151C172.501 21.3969 172.628 21.2111 172.781 21.0579C172.937 20.9035 173.102 20.7781 173.289 20.6772C173.472 20.5797 173.667 20.5077 173.874 20.4589C174.082 20.4113 174.287 20.3858 174.497 20.3858C174.86 20.3858 175.182 20.4427 175.463 20.5541C175.744 20.6679 175.978 20.8257 176.17 21.0393C176.362 21.2552 176.507 21.5129 176.608 21.8217C176.709 22.1316 176.759 22.4787 176.759 22.8757V27.0522H175.182V22.8757C175.182 22.459 175.09 22.1432 174.909 21.932C174.727 21.7184 174.454 21.6162 174.106 21.6162C173.941 21.6162 173.791 21.6418 173.653 21.6998C173.514 21.7544 173.391 21.8345 173.29 21.9389C173.19 22.0434 173.105 22.1746 173.045 22.3324C172.982 22.4903 172.954 22.6714 172.954 22.8769V27.0522H171.371V22.8769C171.371 22.4369 171.283 22.1189 171.105 21.9192C170.93 21.7161 170.667 21.6162 170.32 21.6162C170.096 21.6162 169.883 21.6743 169.684 21.7857C169.486 21.9018 169.302 22.0527 169.129 22.2477V27.0499H167.545V27.0476H167.538V27.0476Z" fill="white"/>
<path d="M183.444 27.0476H182.735C182.585 27.0476 182.469 27.0243 182.383 26.9802C182.297 26.9361 182.234 26.8456 182.191 26.7098L182.05 26.2466C181.884 26.3952 181.722 26.5217 181.56 26.639C181.401 26.7539 181.236 26.8479 181.066 26.9234C180.895 26.9976 180.711 27.0545 180.518 27.0928C180.326 27.1311 180.113 27.1497 179.878 27.1497C179.602 27.1497 179.345 27.1161 179.112 27.0383C178.878 26.964 178.676 26.8502 178.507 26.7005C178.338 26.5507 178.208 26.365 178.113 26.1445C178.02 25.9228 177.972 25.6639 177.972 25.3667C177.972 25.1172 178.04 24.8722 178.167 24.632C178.295 24.3894 178.514 24.1723 178.818 23.9784C179.123 23.7846 179.521 23.6186 180.027 23.4944C180.533 23.3702 181.156 23.3017 181.899 23.3017V22.9163C181.899 22.4741 181.808 22.1467 181.622 21.932C181.437 21.7172 181.164 21.6151 180.814 21.6151C180.557 21.6151 180.347 21.6418 180.174 21.7044C180.005 21.7648 179.857 21.8298 179.73 21.9064C179.606 21.9796 179.487 22.048 179.38 22.1072C179.274 22.1688 179.157 22.1978 179.026 22.1978C178.918 22.1978 178.828 22.1711 178.752 22.1165C178.678 22.0597 178.617 21.9946 178.569 21.9099L178.282 21.4015C179.033 20.712 179.948 20.3637 181.014 20.3637C181.397 20.3637 181.739 20.4287 182.041 20.5529C182.343 20.6783 182.597 20.8548 182.805 21.0776C183.015 21.2982 183.169 21.5675 183.278 21.8762C183.39 22.1897 183.444 22.5298 183.444 22.9024V27.0476V27.0476ZM180.376 26.0632C180.539 26.0632 180.689 26.047 180.824 26.0179C180.96 25.9889 181.09 25.9448 181.212 25.8868C181.333 25.8287 181.45 25.7556 181.564 25.6685C181.679 25.5815 181.79 25.4817 181.909 25.3644V24.2652C181.449 24.2652 181.062 24.2942 180.755 24.3534C180.441 24.4103 180.199 24.4845 180.006 24.5751C179.818 24.661 179.689 24.7701 179.606 24.8897C179.528 25.0104 179.487 25.1404 179.487 25.282C179.487 25.5594 179.567 25.7602 179.733 25.8821C179.899 26.0017 180.112 26.0632 180.376 26.0632Z" fill="white"/>
<path d="M188.892 21.7671C188.85 21.8356 188.805 21.8832 188.76 21.9099C188.712 21.9378 188.652 21.9517 188.583 21.9517C188.506 21.9517 188.422 21.9296 188.333 21.8879C188.249 21.8449 188.148 21.7973 188.029 21.7439C187.913 21.6894 187.784 21.6418 187.636 21.6C187.488 21.5582 187.315 21.535 187.116 21.535C186.804 21.535 186.56 21.6023 186.381 21.7346C186.202 21.8623 186.114 22.0388 186.114 22.2477C186.114 22.3881 186.157 22.51 186.25 22.6052C186.34 22.7027 186.466 22.7863 186.613 22.8594C186.766 22.9326 186.935 22.9952 187.126 23.0544C187.319 23.1125 187.515 23.1752 187.716 23.2425C187.917 23.3098 188.113 23.3888 188.304 23.4758C188.496 23.564 188.668 23.6731 188.818 23.809C188.971 23.939 189.089 24.1038 189.181 24.2918C189.271 24.4752 189.318 24.7028 189.318 24.9674C189.318 25.282 189.26 25.5722 189.147 25.8403C189.03 26.1062 188.864 26.3383 188.64 26.5322C188.422 26.726 188.144 26.8769 187.818 26.986C187.494 27.0952 187.117 27.1497 186.697 27.1497C186.47 27.1497 186.249 27.1288 186.035 27.0882C185.818 27.0499 185.615 26.9918 185.418 26.9187C185.217 26.8456 185.035 26.7608 184.865 26.6633C184.696 26.5635 184.55 26.4544 184.42 26.3441L184.784 25.7428C184.831 25.6697 184.888 25.614 184.953 25.5734C185.017 25.5339 185.098 25.5153 185.196 25.5153C185.295 25.5153 185.385 25.5397 185.473 25.5954C185.559 25.65 185.661 25.7138 185.777 25.7742C185.894 25.838 186.028 25.8961 186.186 25.9518C186.343 26.0075 186.54 26.0342 186.778 26.0342C186.966 26.0342 187.127 26.0098 187.261 25.9645C187.393 25.9204 187.506 25.8601 187.592 25.7916C187.678 25.7185 187.744 25.6337 187.784 25.5385C187.823 25.441 187.846 25.3435 187.846 25.2379C187.846 25.0847 187.801 24.9616 187.708 24.8641C187.618 24.7666 187.494 24.6807 187.344 24.6053C187.195 24.5321 187.023 24.4694 186.83 24.4102C186.635 24.3522 186.438 24.2895 186.232 24.221C186.029 24.1514 185.832 24.0736 185.638 23.9819C185.443 23.8925 185.272 23.7741 185.12 23.6337C184.968 23.4932 184.849 23.3191 184.757 23.116C184.665 22.9117 184.621 22.6633 184.621 22.3731C184.621 22.1072 184.675 21.8495 184.781 21.6069C184.889 21.3643 185.046 21.1473 185.252 20.9697C185.458 20.7897 185.714 20.6446 186.025 20.5355C186.336 20.4264 186.689 20.3695 187.096 20.3695C187.549 20.3695 187.959 20.4427 188.33 20.5924C188.698 20.741 189.01 20.9383 189.257 21.1809L188.892 21.7671Z" fill="white"/>
</svg>
