<?xml version="1.0" encoding="utf-8"?>
<!-- Generator: Adobe Illustrator 16.0.0, SVG Export Plug-In . SVG Version: 6.00 Build 0)  -->
<!DOCTYPE svg PUBLIC "-//W3C//DTD SVG 1.1//EN" "http://www.w3.org/Graphics/SVG/1.1/DTD/svg11.dtd">
<svg version="1.1" id="Layer_1" xmlns="http://www.w3.org/2000/svg" xmlns:xlink="http://www.w3.org/1999/xlink" x="0px" y="0px"
	 width="190px" height="80px" viewBox="0 0 190 80" enable-background="new 0 0 190 80" xml:space="preserve">
<g>
	<g>
		<g>
			<path fill="#FFFFFF" d="M31.022,11.435c0,0-0.852-0.114-2.503-0.114c-1.648-0.029-2.5,0.114-2.5,0.114l0,0l-0.085-1.219
				l1.137-0.115l-0.4-6.157h-1.676V2.258l0,0c0,0,0.283-0.258,3.524-0.258c3.245,0,3.527,0.258,3.527,0.258l0,0v1.686h-1.678
				l-0.397,6.157l1.137,0.115L31.022,11.435L31.022,11.435z"/>
			<path fill="#FFFFFF" d="M25.336,11.61c0,0-0.826,0.234-2.333,0.84c-1.534,0.642-2.276,1.105-2.276,1.105l0,0l-0.54-1.105
				l0.996-0.522l-2.675-5.545L16.945,7.05l-0.626-1.567l0,0c0,0,0.198-0.35,3.185-1.629c2.986-1.247,3.357-1.128,3.357-1.128l0,0
				l0.626,1.57l-1.565,0.632l1.962,5.869l1.081-0.379L25.336,11.61L25.336,11.61z"/>
			<path fill="#FFFFFF" d="M20.16,13.992c0,0-0.685,0.523-1.849,1.683c-1.166,1.189-1.677,1.916-1.677,1.916l0,0l-0.911-0.811
				l0.74-0.899l-4.553-4.068l-1.194,1.222l-1.166-1.19l0,0c0,0,0.029-0.41,2.334-2.734c2.275-2.349,2.672-2.379,2.672-2.379l0,0
				l1.167,1.189L14.53,9.142l3.979,4.649l0.883-0.757L20.16,13.992L20.16,13.992z"/>
			<path fill="#FFFFFF" d="M16.291,18.175c0,0-0.453,0.753-1.08,2.293c-0.655,1.538-0.854,2.409-0.854,2.409l0,0L13.219,22.5
				l0.345-1.133l-5.719-1.974l-0.654,1.6l-1.535-0.646l0,0c0,0-0.115-0.371,1.138-3.454c1.25-3.051,1.565-3.226,1.565-3.226l0,0
				l1.534,0.645l-0.626,1.597l5.404,2.728l0.542-1.046L16.291,18.175L16.291,18.175z"/>
			<path fill="#FFFFFF" d="M14.244,23.544c0,0-0.115,0.868-0.145,2.559c0,1.682,0.145,2.554,0.145,2.554l0,0l-1.197,0.09
				l-0.111-1.166l-6.03,0.407v1.711h-1.65l0,0c0,0-0.256-0.285-0.256-3.596c0-3.309,0.256-3.635,0.256-3.635l0,0h1.65v1.742
				l6.03,0.408l0.111-1.157L14.244,23.544L14.244,23.544z"/>
			<path fill="#FFFFFF" d="M14.385,29.32c0,0,0.2,0.849,0.827,2.356c0.596,1.566,1.08,2.322,1.08,2.322l0,0l-1.08,0.555
				l-0.542-1.023l-5.404,2.736l0.626,1.566L8.357,38.5l0,0c0,0-0.315-0.205-1.565-3.249c-1.252-3.053-1.138-3.432-1.138-3.432l0,0
				l1.535-0.634l0.654,1.596l5.719-1.974l-0.345-1.109L14.385,29.32L14.385,29.32z"/>
			<path fill="#FFFFFF" d="M16.659,34.578c0,0,0.515,0.693,1.652,1.922c1.164,1.189,1.876,1.682,1.876,1.682l0,0l-0.797,0.955
				l-0.883-0.752l-3.979,4.643l1.193,1.222l-1.167,1.194l0,0c0,0-0.396-0.031-2.672-2.385c-2.305-2.35-2.334-2.728-2.334-2.728l0,0
				l1.166-1.194l1.194,1.225l4.553-4.064l-0.74-0.902L16.659,34.578L16.659,34.578z"/>
			<path fill="#FFFFFF" d="M20.757,38.615c0,0,0.712,0.436,2.217,1.074c1.536,0.67,2.388,0.869,2.388,0.869l0,0l-0.398,1.166
				l-1.081-0.351l-1.934,5.841l1.563,0.667l-0.652,1.567l0,0c0,0-0.371,0.113-3.357-1.167c-2.986-1.244-3.155-1.593-3.155-1.593l0,0
				l0.625-1.57l1.564,0.672l2.674-5.552l-1.024-0.55L20.757,38.615L20.757,38.615z"/>
			<path fill="#FFFFFF" d="M26.047,40.709c0,0,0.823,0.114,2.472,0.145c1.652,0.031,2.503-0.145,2.503-0.145l0,0l0.116,1.243
				l-1.167,0.09l0.397,6.156h1.708v1.713l0,0c0,0-0.312,0.233-3.557,0.233c-3.242,0-3.524-0.233-3.524-0.233l0,0v-1.713h1.676
				l0.4-6.156l-1.137-0.09L26.047,40.709L26.047,40.709z"/>
			<path fill="#FFFFFF" d="M31.734,40.59c0,0,0.824-0.204,2.362-0.84c1.534-0.639,2.244-1.105,2.244-1.105l0,0l0.571,1.105
				l-1.022,0.523l2.67,5.543l1.563-0.67l0.627,1.568l0,0c0,0-0.171,0.348-3.185,1.629c-2.988,1.247-3.354,1.135-3.354,1.135l0,0
				l-0.626-1.567l1.563-0.642l-1.934-5.862l-1.108,0.376L31.734,40.59L31.734,40.59z"/>
			<path fill="#FFFFFF" d="M36.966,38.241c0,0,0.684-0.522,1.848-1.688c1.168-1.188,1.679-1.916,1.679-1.916l0,0l0.911,0.814
				l-0.742,0.896l4.552,4.066l1.196-1.221l1.169,1.189l0,0c0,0-0.031,0.409-2.335,2.733c-2.275,2.349-2.672,2.379-2.672,2.379l0,0
				l-1.167-1.188l1.193-1.223l-3.978-4.646l-0.883,0.756L36.966,38.241L36.966,38.241z"/>
			<path fill="#FFFFFF" d="M40.893,34.032c0,0,0.427-0.757,1.08-2.296c0.654-1.515,0.823-2.385,0.823-2.385l0,0l1.169,0.379
				l-0.342,1.105l5.717,1.972l0.653-1.596l1.507,0.638l0,0c0,0,0.115,0.378-1.108,3.422c-1.251,3.084-1.594,3.256-1.594,3.256l0,0
				l-1.536-0.635l0.655-1.598l-5.405-2.734l-0.54,1.045L40.893,34.032L40.893,34.032z"/>
			<path fill="#FFFFFF" d="M42.939,28.625c0,0,0.114-0.872,0.144-2.552c0-1.689-0.144-2.561-0.144-2.561l0,0l1.195-0.083
				l0.112,1.159l6.031-0.4v-1.721h1.648l0,0c0,0,0.258,0.294,0.258,3.605c0,3.308-0.258,3.597-0.258,3.597l0,0h-1.648v-1.712
				l-6.031-0.407l-0.112,1.164L42.939,28.625L42.939,28.625z"/>
			<path fill="#FFFFFF" d="M42.796,22.794c0,0-0.225-0.849-0.823-2.385c-0.628-1.567-1.08-2.327-1.08-2.327l0,0l1.08-0.55
				l0.512,1.046l5.433-2.729l-0.655-1.597l1.536-0.667l0,0c0,0,0.342,0.206,1.564,3.248c1.253,3.051,1.138,3.432,1.138,3.432l0,0
				L49.963,20.9l-0.652-1.597l-5.716,2.007l0.341,1.105L42.796,22.794L42.796,22.794z"/>
			<path fill="#FFFFFF" d="M40.438,17.506c0,0-0.511-0.695-1.649-1.921c-1.168-1.189-1.85-1.682-1.85-1.682l0,0l0.769-0.957
				l0.88,0.754l3.983-4.644l-1.197-1.219l1.167-1.195l0,0c0,0,0.398,0.029,2.672,2.385c2.305,2.349,2.334,2.728,2.334,2.728l0,0
				l-1.167,1.191l-1.193-1.224l-4.549,4.066l0.737,0.902L40.438,17.506L40.438,17.506z"/>
			<path fill="#FFFFFF" d="M36.315,13.496c0,0-0.741-0.434-2.251-1.1c-1.506-0.674-2.359-0.848-2.359-0.848l0,0l0.37-1.159
				l1.108,0.35l1.935-5.84l-1.564-0.667l0.627-1.565l0,0c0,0,0.37-0.115,3.355,1.158c3.015,1.249,3.188,1.597,3.188,1.597l0,0
				l-0.627,1.566l-1.566-0.664l-2.672,5.55l0.997,0.522L36.315,13.496L36.315,13.496z"/>
			<path fill="#FFFFFF" d="M22.121,19.884c0,0-0.342,0.381-0.91,1.252c-0.568,0.841-0.769,1.332-0.769,1.332l0,0l-0.654-0.375
				l0.342-0.609l-3.216-1.885l-0.565,0.869l-0.854-0.584l0,0c0,0,0-0.23,1.079-1.914c1.11-1.687,1.338-1.74,1.338-1.74l0,0
				l0.826,0.581l-0.573,0.871l2.932,2.295l0.456-0.555L22.121,19.884L22.121,19.884z"/>
			<path fill="#FFFFFF" d="M20.271,22.877c0,0-0.17,0.493-0.371,1.507c-0.197,1.02-0.197,1.544-0.197,1.544l0,0l-0.74-0.092
				l0.056-0.695l-3.64-0.49l-0.198,1.045l-0.997-0.204l0,0c0,0-0.112-0.233,0.259-2.207c0.396-1.975,0.568-2.119,0.568-2.119l0,0
				l0.995,0.174l-0.199,1.048l3.583,0.983l0.169-0.697L20.271,22.877L20.271,22.877z"/>
			<path fill="#FFFFFF" d="M19.704,26.361c0,0,0.027,0.522,0.228,1.536c0.169,1.021,0.37,1.516,0.37,1.516l0,0l-0.711,0.202
				l-0.2-0.671l-3.553,0.959l0.197,1.017l-0.994,0.205l0,0c0,0-0.169-0.146-0.57-2.093c-0.397-2.004-0.285-2.203-0.285-2.203l0,0
				l0.997-0.204l0.198,1.044l3.668-0.493l-0.084-0.728L19.704,26.361L19.704,26.361z"/>
			<path fill="#FFFFFF" d="M20.472,29.82c0,0,0.228,0.464,0.768,1.305c0.57,0.839,0.941,1.247,0.941,1.247l0,0l-0.601,0.464
				l-0.424-0.551l-2.93,2.293l0.57,0.874l-0.828,0.579l0,0c0,0-0.226-0.062-1.333-1.743c-1.111-1.679-1.083-1.916-1.083-1.916l0,0
				l0.852-0.581l0.57,0.869l3.186-1.853l-0.344-0.639L20.472,29.82L20.472,29.82z"/>
			<path fill="#FFFFFF" d="M22.461,32.66c0,0,0.4,0.349,1.224,0.933c0.826,0.581,1.31,0.785,1.31,0.785l0,0l-0.343,0.666
				l-0.624-0.345l-1.847,3.277l0.881,0.582L22.49,39.43l0,0c0,0-0.225,0.029-1.878-1.104c-1.648-1.126-1.734-1.362-1.734-1.362l0,0
				l0.571-0.842l0.852,0.579l2.245-2.994l-0.54-0.462L22.461,32.66L22.461,32.66z"/>
			<path fill="#FFFFFF" d="M25.391,34.555c0,0,0.483,0.174,1.479,0.371c0.967,0.235,1.509,0.235,1.509,0.235l0,0l-0.086,0.756
				l-0.712-0.09l-0.455,3.746l0.997,0.204l-0.201,1.018l0,0c0,0-0.2,0.112-2.133-0.291c-1.961-0.376-2.104-0.58-2.104-0.58l0,0
				l0.199-1.017l1.024,0.204l0.939-3.635l-0.656-0.205L25.391,34.555L25.391,34.555z"/>
			<path fill="#FFFFFF" d="M28.804,35.161c0,0,0.513-0.033,1.507-0.205c0.998-0.205,1.479-0.401,1.479-0.401l0,0l0.2,0.719
				l-0.682,0.205l0.967,3.658l1.023-0.197l0.2,0.984l0,0c0,0-0.172,0.204-2.105,0.58c-1.935,0.403-2.134,0.291-2.134,0.291l0,0
				l-0.199-1.018l0.995-0.204l-0.484-3.746l-0.683,0.09L28.804,35.161L28.804,35.161z"/>
			<path fill="#FFFFFF" d="M32.19,34.4c0,0,0.454-0.228,1.309-0.779c0.852-0.583,1.221-0.961,1.221-0.961l0,0l0.457,0.615
				l-0.542,0.43l2.247,2.994l0.854-0.579l0.567,0.842l0,0c0,0-0.055,0.236-1.707,1.362c-1.649,1.135-1.877,1.105-1.877,1.105l0,0
				l-0.569-0.871l0.856-0.582l-1.849-3.25l-0.627,0.35L32.19,34.4L32.19,34.4z"/>
			<path fill="#FFFFFF" d="M35.031,32.372c0,0,0.343-0.408,0.913-1.247c0.565-0.813,0.766-1.305,0.766-1.305l0,0l0.655,0.349
				l-0.34,0.639l3.212,1.853l0.572-0.869l0.851,0.552l0,0c0,0,0,0.268-1.082,1.917c-1.107,1.687-1.337,1.771-1.337,1.771l0,0
				l-0.822-0.579l0.565-0.874l-2.927-2.293l-0.455,0.551L35.031,32.372L35.031,32.372z"/>
			<path fill="#FFFFFF" d="M36.911,29.413c0,0,0.169-0.525,0.37-1.516c0.197-1.014,0.227-1.568,0.227-1.568l0,0l0.711,0.09
				l-0.056,0.729l3.666,0.493l0.202-1.046l0.993,0.205l0,0c0,0,0.085,0.203-0.281,2.204c-0.401,1.946-0.572,2.089-0.572,2.089l0,0
				l-0.997-0.205l0.2-0.984l-3.552-0.984l-0.202,0.696L36.911,29.413L36.911,29.413z"/>
			<path fill="#FFFFFF" d="M37.508,25.899c0,0-0.03-0.525-0.227-1.537c-0.17-1.023-0.37-1.514-0.37-1.514l0,0l0.709-0.205
				l0.202,0.67l3.552-0.96l-0.2-1.044l0.997-0.205l0,0c0,0,0.17,0.145,0.572,2.122c0.395,2.007,0.281,2.202,0.281,2.202l0,0
				l-0.993,0.205l-0.202-1.045l-3.666,0.494l0.085,0.724L37.508,25.899L37.508,25.899z"/>
			<path fill="#FFFFFF" d="M36.74,22.415c0,0-0.23-0.47-0.767-1.339c-0.572-0.872-0.942-1.251-0.942-1.251l0,0l0.599-0.464
				l0.427,0.556l2.927-2.297l-0.565-0.868l0.852-0.586l0,0c0,0,0.227,0.063,1.307,1.744c1.11,1.688,1.082,1.915,1.082,1.915l0,0
				l-0.826,0.584l-0.597-0.871l-3.186,1.885l0.341,0.614L36.74,22.415L36.74,22.415z"/>
			<path fill="#FFFFFF" d="M34.72,19.508c0,0-0.398-0.349-1.221-0.93c-0.826-0.576-1.309-0.781-1.309-0.781l0,0l0.368-0.667
				l0.6,0.348l1.849-3.287l-0.856-0.574l0.569-0.871l0,0c0,0,0.228,0,1.877,1.098c1.652,1.137,1.707,1.37,1.707,1.37l0,0
				l-0.567,0.841l-0.854-0.584l-2.247,2.991l0.542,0.467L34.72,19.508L34.72,19.508z"/>
			<path fill="#FFFFFF" d="M31.764,17.62c0,0-0.484-0.172-1.453-0.407c-0.995-0.204-1.535-0.204-1.535-0.204l0,0l0.085-0.751
				l0.709,0.085l0.484-3.745l-1.021-0.201l0.194-1.021l0,0c0,0,0.201-0.114,2.136,0.293c1.962,0.379,2.104,0.553,2.104,0.553l0,0
				l-0.199,1.015l-1.023-0.202l-0.938,3.657l0.653,0.202L31.764,17.62L31.764,17.62z"/>
			<path fill="#FFFFFF" d="M28.349,17.037c0,0-0.541,0.032-1.507,0.205c-0.995,0.206-1.479,0.41-1.479,0.41l0,0l-0.227-0.728
				l0.683-0.205l-0.967-3.657l-0.995,0.205l-0.199-1.016l0,0c0,0,0.143-0.18,2.076-0.583c1.936-0.378,2.164-0.264,2.164-0.264l0,0
				l0.197,1.015l-1.023,0.203l0.481,3.72l0.713-0.06L28.349,17.037L28.349,17.037z"/>
			<path fill="#FFFFFF" d="M24.938,17.826c0,0-0.457,0.228-1.31,0.781c-0.826,0.58-1.222,0.959-1.222,0.959l0,0l-0.456-0.611
				l0.54-0.434l-2.244-2.991l-0.855,0.583l-0.568-0.877l0,0c0,0,0.085-0.198,1.705-1.333c1.652-1.134,1.908-1.105,1.908-1.105l0,0
				l0.539,0.87l-0.854,0.584l1.849,3.254l0.625-0.348L24.938,17.826L24.938,17.826z"/>
			<path fill="#FFFFFF" d="M23.94,23.166c0,0-0.172,0.264-0.396,0.847c-0.257,0.576-0.312,0.895-0.312,0.895l0,0l-0.43-0.145
				l0.115-0.4l-2.134-0.728l-0.255,0.575l-0.567-0.227l0,0c0,0-0.029-0.145,0.427-1.279c0.456-1.16,0.596-1.221,0.596-1.221l0,0
				l0.571,0.237L21.3,22.323l2.045,1.016l0.2-0.402L23.94,23.166L23.94,23.166z"/>
			<path fill="#FFFFFF" d="M23.173,25.201c0,0-0.027,0.32-0.027,0.926c-0.029,0.642,0.057,0.959,0.057,0.959l0,0l-0.458,0.062
				l-0.055-0.469l-2.248,0.173v0.646h-0.627l0,0c0,0-0.084-0.122-0.084-1.34c0-1.25,0.084-1.364,0.084-1.364l0,0h0.627v0.636
				l2.248,0.15l0.026-0.438L23.173,25.201L23.173,25.201z"/>
			<path fill="#FFFFFF" d="M23.258,27.352c0,0,0.059,0.317,0.314,0.895c0.228,0.584,0.398,0.876,0.398,0.876l0,0l-0.398,0.198
				l-0.199-0.376l-2.048,1.02l0.255,0.578l-0.567,0.266l0,0c0,0-0.146-0.093-0.597-1.222c-0.456-1.138-0.429-1.279-0.429-1.279l0,0
				l0.57-0.259l0.254,0.608l2.137-0.759l-0.146-0.4L23.258,27.352L23.258,27.352z"/>
			<path fill="#FFFFFF" d="M24.112,29.32c0,0,0.198,0.266,0.624,0.697c0.43,0.469,0.712,0.643,0.712,0.643l0,0l-0.312,0.35
				l-0.314-0.264l-1.504,1.712l0.452,0.437l-0.425,0.461l0,0c0,0-0.14-0.022-1.023-0.896c-0.851-0.87-0.851-1.018-0.851-1.018l0,0
				l0.425-0.431l0.456,0.431l1.706-1.477l-0.287-0.349L24.112,29.32L24.112,29.32z"/>
			<path fill="#FFFFFF" d="M25.646,30.808c0,0,0.287,0.143,0.854,0.378c0.569,0.255,0.881,0.316,0.881,0.316l0,0l-0.141,0.435
				l-0.427-0.117L26.102,34l0.597,0.261l-0.254,0.583l0,0c0,0-0.142,0.029-1.254-0.441C24.084,33.939,24,33.798,24,33.798l0,0
				l0.255-0.584l0.566,0.265l0.997-2.09l-0.371-0.202L25.646,30.808L25.646,30.808z"/>
			<path fill="#FFFFFF" d="M27.61,31.562c0,0,0.342,0.057,0.938,0.057c0.626,0,0.937-0.057,0.937-0.057l0,0l0.03,0.464l-0.425,0.029
				l0.169,2.323l0.626-0.028v0.637l0,0c0,0-0.115,0.117-1.338,0.117c-1.192,0-1.308-0.117-1.308-0.117l0,0v-0.607h0.627l0.141-2.323
				l-0.427-0.029L27.61,31.562L27.61,31.562z"/>
			<path fill="#FFFFFF" d="M29.743,31.502c0,0,0.313-0.062,0.88-0.316c0.571-0.235,0.856-0.378,0.856-0.378l0,0l0.197,0.378
				l-0.368,0.202l0.994,2.09l0.571-0.265l0.255,0.584l0,0c0,0-0.085,0.142-1.194,0.604c-1.111,0.471-1.253,0.44-1.253,0.44l0,0
				l-0.256-0.583l0.596-0.261l-0.74-2.18l-0.396,0.145L29.743,31.502L29.743,31.502z"/>
			<path fill="#FFFFFF" d="M31.676,30.66c0,0,0.258-0.202,0.711-0.643c0.43-0.432,0.626-0.697,0.626-0.697l0,0l0.341,0.295
				l-0.282,0.349l1.703,1.477l0.458-0.461l0.425,0.461l0,0c0,0,0,0.147-0.852,1.018c-0.852,0.874-0.998,0.896-0.998,0.896l0,0
				l-0.454-0.461l0.454-0.461l-1.506-1.687l-0.312,0.233L31.676,30.66L31.676,30.66z"/>
			<path fill="#FFFFFF" d="M33.157,29.095c0,0,0.17-0.296,0.396-0.849c0.255-0.577,0.315-0.926,0.315-0.926l0,0l0.426,0.147
				l-0.114,0.43l2.134,0.728l0.254-0.577l0.568,0.228l0,0c0,0,0.029,0.146-0.427,1.281c-0.456,1.158-0.596,1.218-0.596,1.218l0,0
				l-0.571-0.232l0.259-0.607l-2.05-1.016l-0.198,0.374L33.157,29.095L33.157,29.095z"/>
			<path fill="#FFFFFF" d="M33.924,27.057c0,0,0.057-0.317,0.057-0.93c0-0.636-0.057-0.955-0.057-0.955l0,0l0.456-0.06l0.025,0.438
				l2.279-0.147v-0.641h0.622l0,0c0,0,0.086,0.12,0.086,1.34c0,1.249-0.086,1.365-0.086,1.365l0,0h-0.622v-0.639l-2.279-0.176
				l-0.025,0.433L33.924,27.057L33.924,27.057z"/>
			<path fill="#FFFFFF" d="M33.895,24.883c0,0-0.086-0.322-0.312-0.899c-0.256-0.584-0.426-0.843-0.426-0.843l0,0l0.426-0.232
				l0.2,0.405l2.018-1.049l-0.259-0.577l0.571-0.265l0,0c0,0,0.141,0.092,0.596,1.221c0.487,1.163,0.427,1.278,0.427,1.278l0,0
				l-0.568,0.267l-0.254-0.615l-2.134,0.758l0.141,0.403L33.895,24.883L33.895,24.883z"/>
			<path fill="#FFFFFF" d="M33.013,22.877c0,0-0.196-0.233-0.626-0.694c-0.425-0.438-0.682-0.639-0.682-0.639l0,0l0.286-0.35
				l0.312,0.289l1.506-1.741l-0.454-0.464l0.429-0.437l0,0c0,0,0.14,0,1.022,0.87c0.852,0.871,0.852,1.015,0.852,1.015l0,0
				l-0.425,0.468l-0.458-0.468l-1.703,1.538l0.282,0.324L33.013,22.877L33.013,22.877z"/>
			<path fill="#FFFFFF" d="M31.449,21.394c0,0-0.255-0.174-0.826-0.4c-0.567-0.267-0.88-0.32-0.88-0.32l0,0l0.144-0.44l0.396,0.115
				l0.711-2.173l-0.568-0.265l0.228-0.579l0,0c0,0,0.141-0.028,1.251,0.434c1.138,0.464,1.193,0.612,1.193,0.612l0,0l-0.225,0.578
				l-0.598-0.258l-0.996,2.09l0.397,0.206L31.449,21.394L31.449,21.394z"/>
			<path fill="#FFFFFF" d="M29.459,20.611c0,0-0.314-0.028-0.911-0.059c-0.626,0-0.938,0.059-0.938,0.059l0,0l-0.059-0.462
				l0.43-0.028l-0.144-2.295h-0.625v-0.645l0,0c0,0,0.114-0.081,1.307-0.081c1.224-0.031,1.338,0.081,1.338,0.081l0,0v0.615
				l-0.627,0.029l-0.168,2.295l0.455,0.028L29.459,20.611L29.459,20.611z"/>
			<path fill="#FFFFFF" d="M27.326,20.673c0,0-0.312,0.083-0.881,0.32c-0.571,0.256-0.828,0.43-0.828,0.43l0,0l-0.227-0.401
				l0.398-0.205l-1.023-2.09l-0.567,0.259l-0.229-0.581l0,0c0,0,0.057-0.146,1.166-0.607c1.137-0.494,1.252-0.438,1.252-0.438l0,0
				l0.256,0.583l-0.597,0.263l0.739,2.174l0.399-0.146L27.326,20.673L27.326,20.673z"/>
			<path fill="#FFFFFF" d="M25.391,21.569c0,0-0.255,0.202-0.68,0.642c-0.456,0.433-0.627,0.726-0.627,0.726l0,0l-0.371-0.323
				L24,22.294l-1.709-1.507l-0.424,0.433l-0.456-0.433l0,0c0,0,0.029-0.145,0.88-1.016c0.856-0.899,0.997-0.899,0.997-0.899l0,0
				l0.426,0.431l-0.426,0.469l1.479,1.743l0.341-0.295L25.391,21.569L25.391,21.569z"/>
		</g>
		<rect x="5.396" y="56.155" fill="#FFFFFF" width="179.604" height="3.427"/>
		<path fill="#FFFFFF" d="M164.238,19.825h-0.908l0,0c-0.23,0.674-0.344,0.758-0.855,0.758c-1.277,0-2.928-1.045-6.429-1.045
			c-5.346,0-8.958,2.877-8.958,7.087c0,2.146,0.795,4.066,2.789,5.718c3.697,3.08,12.542,5.285,12.542,10.019
			c0,2.961-2.646,4.88-6.627,4.88c-2.872,0-7.849-1.653-7.909-6.736l0,0h-0.99v7.407h0.99l0,0c0.288-0.695,0.686-1.045,1.256-1.045
			c1.106,0,4.036,1.449,7.534,1.449c5.149,0,9.358-3.515,9.358-7.813c0-1.83-0.57-3.542-2.873-5.46
			c-4.723-3.951-13.085-5.252-13.085-10.334c0-2.527,2.448-4.127,5.889-4.127c3.356,0,6.8,1.6,7.31,5.664l0,0h0.967V19.825
			L164.238,19.825z"/>
		<path fill="#FFFFFF" d="M71.666,25.491c0-3.342,0.938-4.387,3.553-4.387l0,0v-0.84H63.986v0.84l0,0
			c2.671,0,3.553,0.901,3.553,4.387l0,0V42.68l0,0c0,3.543-0.996,4.414-3.553,4.414l0,0v0.817h11.232v-0.817l0,0
			c-2.614,0-3.553-1.017-3.553-4.414l0,0L71.666,25.491L71.666,25.491z"/>
		<path fill="#FFFFFF" d="M108.297,27.701l-0.029-6.452h-1.051l0,0c-0.115,0.118-0.343,0.266-0.826,0.266
			c-1.42,0-3.896-1.772-9.642-1.772c-9.5,0-16.353,6.215-16.353,14.812c0,8.248,6.654,14.197,15.897,14.197
			c5.377,0,8.732-1.688,11.635-1.277c0.055,0,1.563-6.332,1.592-6.414l0,0h-0.854l0,0c-3.1,5.369-7.539,6.588-11.148,6.588
			c-6.911,0-12.829-5.922-12.829-13.965c0-7.466,4.751-12.836,12.344-12.836c4.977,0,8.904,2.698,10.408,6.855l0,0L108.297,27.701
			L108.297,27.701z"/>
		<path fill="#FFFFFF" d="M136.365,30.632h-0.938l0,0c-0.427,2.354-1.251,2.673-3.384,2.673l0,0h-8.701v-11.79h8.984l0,0
			c3.44,0,4.522,0.229,5.233,3.278l0,0h0.598v-4.644h-22.495v0.844l0,0c2.671,0,3.526,0.952,3.526,4.381l0,0v17.251l0,0
			c0,3.658-1.084,4.354-3.526,4.354l0,0v0.813h22.495l1.423-5.166h-0.94l0,0c-1.85,3.629-2.986,3.803-7.563,3.803l0,0h-5.46l0,0
			c-1.738,0-2.274-0.522-2.274-1.855l0,0v-9.905h7.734l0,0c3.213,0,3.694,0.29,4.351,2.646l0,0h0.938V30.632L136.365,30.632z"/>
		<path fill="#FFFFFF" d="M180.99,25.374c0-3.337,0.938-4.381,3.555-4.381l0,0v-0.844h-11.234v0.844l0,0
			c2.676,0,3.558,0.898,3.558,4.381l0,0v17.19l0,0c0,3.545-0.996,4.414-3.558,4.414l0,0v0.813h11.234v-0.813l0,0
			c-2.617,0-3.555-1.014-3.555-4.414l0,0V25.374L180.99,25.374z"/>
		<path fill="#FFFFFF" d="M63.73,4.468h1.108v4.354l0,0c0,0.463,0.03,0.812,0.084,1.017c0.06,0.204,0.146,0.378,0.286,0.522
			c0.228,0.264,0.512,0.469,0.827,0.583c0.31,0.142,0.68,0.202,1.079,0.202c0.684,0,1.223-0.173,1.65-0.49
			c0.428-0.351,0.624-0.787,0.624-1.371l0,0V4.469H70.5v4.877l0,0c0,0.84-0.315,1.507-0.941,2.031
			c-0.624,0.522-1.419,0.785-2.444,0.785c-0.598,0-1.139-0.089-1.619-0.287c-0.486-0.205-0.884-0.498-1.197-0.901
			c-0.225-0.233-0.368-0.491-0.455-0.788c-0.085-0.288-0.112-0.728-0.112-1.331l0,0V4.468H63.73z"/>
		<polygon fill="#FFFFFF" points="76.868,12.018 76.868,4.468 77.865,4.468 83.042,10.329 83.042,4.468 84.149,4.468 84.149,12.018 
			83.155,12.018 78.005,6.148 78.005,12.018 		"/>
		<polygon fill="#FFFFFF" points="90.947,12.018 90.947,4.468 92.057,4.468 92.057,12.018 		"/>
		<polygon fill="#FFFFFF" points="101.104,12.072 97.66,4.468 98.824,4.468 101.273,9.868 103.773,4.468 104.941,4.468 
			101.414,12.072 		"/>
		<polygon fill="#FFFFFF" points="110.688,12.018 110.688,4.468 115.406,4.468 115.406,5.422 111.795,5.422 111.795,7.717 
			115.322,7.717 115.322,8.709 111.795,8.709 111.795,11.057 115.521,11.057 115.521,12.018 		"/>
		<path fill="#FFFFFF" d="M122.061,12.018v-7.55h2.307l0,0c0.796,0,1.422,0.174,1.847,0.553c0.429,0.347,0.653,0.84,0.653,1.506
			c0,0.494-0.11,0.904-0.367,1.222c-0.229,0.285-0.6,0.523-1.109,0.664c0.112,0.062,0.254,0.175,0.371,0.297
			c0.112,0.084,0.254,0.286,0.452,0.546l0,0l1.906,2.763h-1.363l-1.338-1.976l0,0c-0.428-0.585-0.741-0.985-0.996-1.137
			c-0.255-0.169-0.542-0.257-0.882-0.257l0,0H123.2v3.369H122.061L122.061,12.018L122.061,12.018z M123.199,7.748h0.937l0,0
			c0.515,0,0.911-0.115,1.167-0.289c0.256-0.204,0.399-0.493,0.399-0.899c0-0.411-0.114-0.699-0.369-0.901
			c-0.256-0.176-0.657-0.266-1.197-0.266l0,0h-0.937V7.748L123.199,7.748z"/>
		<path fill="#FFFFFF" d="M133.578,11.435v-1.424l0,0c0.373,0.407,0.713,0.667,1.023,0.841c0.344,0.175,0.686,0.266,1.053,0.266
			c0.371,0,0.686-0.091,0.91-0.266c0.228-0.174,0.342-0.4,0.342-0.696c0-0.259-0.086-0.462-0.227-0.666
			c-0.145-0.176-0.512-0.433-1.082-0.78c-0.882-0.555-1.449-0.992-1.679-1.278c-0.228-0.321-0.342-0.669-0.342-1.106
			c0-0.581,0.229-1.047,0.657-1.425c0.427-0.379,0.992-0.574,1.677-0.574c0.28,0,0.599,0.052,0.88,0.143
			c0.314,0.053,0.6,0.207,0.911,0.379l0,0v1.218l0,0c-0.371-0.265-0.685-0.468-0.968-0.582c-0.284-0.115-0.596-0.174-0.881-0.174
			c-0.342,0-0.627,0.084-0.854,0.26c-0.229,0.148-0.34,0.378-0.34,0.643c0,0.377,0.455,0.839,1.391,1.391l0,0l0.172,0.087l0,0
			c0.74,0.466,1.254,0.87,1.479,1.194c0.229,0.35,0.34,0.778,0.34,1.272c0,0.584-0.228,1.077-0.651,1.455
			c-0.427,0.376-0.994,0.551-1.679,0.551c-0.426,0-0.795-0.06-1.137-0.175C134.234,11.874,133.893,11.7,133.578,11.435
			L133.578,11.435L133.578,11.435z"/>
		<polygon fill="#FFFFFF" points="144.246,12.018 144.246,4.468 145.354,4.468 145.354,12.018 		"/>
		<path fill="#FFFFFF" d="M155.021,5.482h-1.76v5.52h1.76l0,0c0.998,0,1.734-0.234,2.306-0.727c0.567-0.492,0.825-1.165,0.825-2.037
			c0-0.841-0.258-1.507-0.825-1.999C156.757,5.743,156.02,5.482,155.021,5.482L155.021,5.482L155.021,5.482L155.021,5.482z
			 M155.021,4.468c0.599,0,1.084,0.053,1.51,0.146c0.426,0.112,0.796,0.286,1.166,0.49c0.512,0.35,0.938,0.815,1.224,1.336
			c0.284,0.549,0.425,1.162,0.425,1.799c0,0.667-0.141,1.251-0.425,1.804c-0.285,0.553-0.712,0.984-1.224,1.334
			c-0.34,0.234-0.74,0.379-1.166,0.498c-0.426,0.112-0.911,0.144-1.51,0.144l0,0h-2.869v-7.55L155.021,4.468L155.021,4.468z"/>
		<path fill="#FFFFFF" d="M166.658,8.821h2.443L167.88,6.09L166.658,8.821L166.658,8.821L166.658,8.821z M164.068,12.018l3.41-7.55
			h0.826l3.442,7.55h-1.168l-0.997-2.211h-3.352l-1.026,2.211H164.068L164.068,12.018z"/>
		<path fill="#FFFFFF" d="M180.477,5.482h-1.791v5.52h1.791l0,0c0.969,0,1.738-0.234,2.277-0.727
			c0.568-0.492,0.854-1.165,0.854-2.037c0-0.841-0.284-1.507-0.854-1.999C182.215,5.743,181.443,5.482,180.477,5.482L180.477,5.482
			L180.477,5.482L180.477,5.482z M180.477,4.468c0.57,0,1.08,0.053,1.482,0.146c0.426,0.112,0.822,0.286,1.162,0.49
			c0.542,0.35,0.941,0.815,1.223,1.336c0.316,0.549,0.457,1.162,0.457,1.799c0,0.667-0.141,1.251-0.457,1.804
			c-0.281,0.553-0.681,0.984-1.223,1.334c-0.34,0.234-0.736,0.379-1.137,0.498c-0.428,0.112-0.938,0.144-1.508,0.144l0,0h-2.899
			v-7.55L180.477,4.468L180.477,4.468z"/>
	</g>
</g>
</svg>
